<?xml version="1.0" encoding="utf-8"?>
<!-- Generator: Adobe Illustrator 26.0.3, SVG Export Plug-In . SVG Version: 6.00 Build 0)  -->
<svg version="1.1" id="Camada_1" xmlns="http://www.w3.org/2000/svg" xmlns:xlink="http://www.w3.org/1999/xlink" x="0px" y="0px"
	 viewBox="0 0 1271 1034" style="enable-background:new 0 0 1271 1034;" xml:space="preserve">
<style type="text/css">
	.st0{fill-rule:evenodd;clip-rule:evenodd;}
	.st1{fill:none;}
	.st2{fill-rule:evenodd;clip-rule:evenodd;fill:#D5B05F;}
</style>
<rect x="573.6" y="222.1" class="st0" width="26.4" height="693.3"/>
<rect x="626.4" y="222.1" class="st0" width="26.4" height="693.3"/>
<rect x="679.2" y="222.1" class="st0" width="26.4" height="693.3"/>
<rect x="278.9" y="208.9" class="st0" width="721.5" height="27.4"/>
<rect x="379.2" y="154.1" class="st0" width="520.8" height="27.4"/>
<rect x="573.6" y="35.1" class="st0" width="26.4" height="146.4"/>
<rect x="626.4" y="35.1" class="st0" width="26.4" height="146.4"/>
<rect x="679.2" y="35.1" class="st0" width="26.4" height="146.4"/>
<path class="st0" d="M725.4,62.5c10,0.2,18.1,8.8,18.1,19.2c0,9.9-7.3,18.1-16.6,19.1v27.5c23.8-1,43-21.6,43-46.5
	c0-25.5-20-46.4-44.5-46.6H553.8c-24.5,0.2-44.5,21.1-44.5,46.6c0,25,19.2,45.5,43,46.5v-27.5c-9.3-1-16.7-9.2-16.7-19.1
	c0-10.4,8.1-19,18.1-19.2l0,0L725.4,62.5L725.4,62.5z"/>
<path class="st0" d="M245.7,618.6l86.1-250.3L418,618.6h-86.2H245.7L245.7,618.6z M331.8,286.9L217.9,618c-4.8,14-6,20.1-3.9,35
	c8.4,58.7,60.3,100,117.3,101.2h0.5h0.6c56.9-1.2,108.9-42.5,117.2-101.2c2.1-14.9,0.9-21-3.9-35L331.8,286.9L331.8,286.9z
	 M331.8,726.8c-42.3-0.9-86.8-31.5-92.1-80.8h92.1h92.1C418.6,695.3,374.2,725.8,331.8,726.8z"/>
<rect x="318.6" y="221.9" class="st0" width="26.4" height="146.4"/>
<path class="st0" d="M861.2,618.6l86.1-250.3l86.2,250.3h-86.2H861.2L861.2,618.6z M947.3,286.9L833.4,618c-4.8,14-6,20.1-3.9,35
	c8.4,58.7,60.3,100,117.2,101.2h0.6h0.6c56.9-1.2,108.9-42.5,117.2-101.2c2.1-14.9,1-21-3.9-35L947.3,286.9L947.3,286.9z
	 M947.3,726.8c-42.3-0.9-86.8-31.5-92.1-80.8h92.1h92.1C1034.2,695.3,989.7,725.8,947.3,726.8z"/>
<rect x="934.2" y="221.9" class="st0" width="26.4" height="146.4"/>
<rect x="397.3" y="951.4" class="st0" width="484.5" height="27.4"/>
<rect x="464.7" y="896.6" class="st0" width="349.7" height="27.4"/>
<g transform="translate(15)">
	<g>
		<path id="b" class="st1" d="M0,0"/>
	</g>
	<g>
		<path id="b_00000145027340701944594510000001321447939196532642_" class="st1" d="M0,0"/>
	</g>
	<path class="st1" d="M0,0"/>
</g>
<rect x="569.5" y="217.3" class="st2" width="26.4" height="693.3"/>
<rect x="622.3" y="217.3" class="st2" width="26.4" height="693.3"/>
<rect x="675.1" y="217.3" class="st2" width="26.4" height="693.3"/>
<rect x="274.8" y="204.1" class="st2" width="721.5" height="27.4"/>
<rect x="375.1" y="149.3" class="st2" width="520.8" height="27.4"/>
<rect x="569.5" y="30.3" class="st2" width="26.4" height="146.4"/>
<rect x="622.3" y="30.3" class="st2" width="26.4" height="146.4"/>
<rect x="675.1" y="30.3" class="st2" width="26.4" height="146.4"/>
<path class="st2" d="M721.3,57.7c10,0.2,18.1,8.8,18.1,19.2c0,9.9-7.3,18.1-16.6,19.1v27.5c23.8-1,43-21.6,43-46.5
	c0-25.5-20-46.4-44.5-46.6H549.7c-24.5,0.2-44.5,21.1-44.5,46.6c0,25,19.2,45.5,43,46.5V96c-9.3-1-16.7-9.2-16.7-19.1
	c0-10.4,8.1-19,18.1-19.2l0,0H721.3L721.3,57.7z"/>
<path class="st2" d="M241.6,613.8l86.1-250.3l86.2,250.3h-86.2H241.6L241.6,613.8z M327.7,282.1L213.8,613.2c-4.8,14-6,20.1-3.9,35
	c8.4,58.7,60.3,100,117.3,101.2h0.5h0.6c56.9-1.2,108.9-42.5,117.2-101.2c2.1-14.9,0.9-21-3.9-35L327.7,282.1L327.7,282.1z
	 M327.7,722c-42.3-0.9-86.8-31.5-92.1-80.8h92.1h92.1C414.5,690.5,370.1,721,327.7,722z"/>
<rect x="314.5" y="217.1" class="st2" width="26.4" height="146.4"/>
<path class="st2" d="M857.1,613.8l86.1-250.3l86.2,250.3h-86.2H857.1L857.1,613.8z M943.2,282.1L829.3,613.2c-4.8,14-6,20.1-3.9,35
	c8.4,58.7,60.3,100,117.2,101.2h0.6h0.6c56.9-1.2,108.9-42.5,117.2-101.2c2.1-14.9,1-21-3.9-35L943.2,282.1L943.2,282.1z M943.2,722
	c-42.3-0.9-86.8-31.5-92.1-80.8h92.1h92.1C1030.1,690.5,985.6,721,943.2,722z"/>
<rect x="930.1" y="217.1" class="st2" width="26.4" height="146.4"/>
<rect x="393.2" y="946.6" class="st2" width="484.5" height="27.4"/>
<rect x="460.6" y="891.8" class="st2" width="349.7" height="27.4"/>
</svg>
