<?xml version="1.0" encoding="utf-8"?>
<!-- Generator: Adobe Illustrator 26.0.3, SVG Export Plug-In . SVG Version: 6.00 Build 0)  -->
<svg version="1.1" id="Camada_1" xmlns="http://www.w3.org/2000/svg" xmlns:xlink="http://www.w3.org/1999/xlink" x="0px" y="0px"
	 viewBox="0 0 189.6 91.5" style="enable-background:new 0 0 189.6 91.5;" xml:space="preserve">
<style type="text/css">
	.st0{fill:#121326;}
	.st1{fill-rule:evenodd;clip-rule:evenodd;fill:#121326;}
	.st2{fill-rule:evenodd;clip-rule:evenodd;fill:#CEAD4D;}
</style>
<path class="st0" d="M37.6,43.8c-1.9-1.9-2.8-4.5-2.8-8V22.3h4.5v13.4c0,4.7,2,7.1,6.1,7.1c4.1,0,6.1-2.4,6.1-7.1V22.3h4.4v13.5
	c0,3.5-0.9,6.1-2.8,8c-1.8,1.9-4.4,2.8-7.8,2.8C42.1,46.6,39.5,45.6,37.6,43.8z"/>
<path class="st0" d="M77.9,46.2l-4.9-7c-0.2,0-0.5,0-0.9,0h-5.4v7h-4.5v-24h9.9c2.1,0,3.9,0.3,5.5,1c1.5,0.7,2.7,1.7,3.6,2.9
	c0.8,1.3,1.2,2.8,1.2,4.6c0,1.8-0.4,3.4-1.3,4.7c-0.9,1.3-2.2,2.3-3.8,2.9l5.5,7.9H77.9z M76.3,27.3c-1-0.8-2.5-1.2-4.4-1.2h-5.2
	v9.6h5.2c1.9,0,3.4-0.4,4.4-1.2c1-0.8,1.5-2,1.5-3.5C77.8,29.3,77.3,28.1,76.3,27.3z"/>
<path class="st0" d="M112.8,48.6c-0.8,0.9-1.7,1.6-2.8,2.1c-1.1,0.5-2.2,0.7-3.5,0.7c-1.7,0-3.2-0.4-4.5-1.1c-1.4-0.7-2.9-2-4.7-3.9
	c-2.2-0.2-4.2-0.8-6-1.9c-1.8-1.1-3.1-2.6-4.1-4.3c-1-1.8-1.5-3.8-1.5-6c0-2.3,0.6-4.4,1.7-6.3c1.1-1.9,2.7-3.4,4.6-4.4
	c2-1.1,4.2-1.6,6.6-1.6c2.5,0,4.7,0.5,6.6,1.6c2,1.1,3.5,2.5,4.6,4.4c1.1,1.9,1.7,4,1.7,6.3c0,1.9-0.4,3.6-1.1,5.3
	c-0.8,1.6-1.8,3-3.2,4.1c-1.4,1.1-2.9,1.9-4.7,2.4c0.7,0.7,1.3,1.2,2,1.5c0.6,0.3,1.3,0.5,2.1,0.5c1.6,0,3-0.6,4.1-1.9L112.8,48.6z
	 M91.2,38.6c0.7,1.3,1.7,2.3,3,3c1.3,0.7,2.7,1.1,4.3,1.1c1.6,0,3.1-0.4,4.3-1.1c1.3-0.7,2.3-1.7,3-3c0.7-1.3,1.1-2.7,1.1-4.3
	c0-1.6-0.4-3-1.1-4.3c-0.7-1.3-1.7-2.3-3-3c-1.3-0.7-2.7-1.1-4.3-1.1c-1.6,0-3.1,0.4-4.3,1.1c-1.3,0.7-2.3,1.7-3,3
	c-0.7,1.3-1.1,2.7-1.1,4.3C90.1,35.8,90.5,37.3,91.2,38.6z"/>
<path class="st0" d="M118.9,43.8c-1.9-1.9-2.8-4.5-2.8-8V22.3h4.5v13.4c0,4.7,2,7.1,6.1,7.1c4.1,0,6.1-2.4,6.1-7.1V22.3h4.4v13.5
	c0,3.5-0.9,6.1-2.8,8c-1.8,1.9-4.4,2.8-7.8,2.8C123.3,46.6,120.8,45.6,118.9,43.8z"/>
<path class="st0" d="M143.5,22.3h4.5v24h-4.5V22.3z"/>
<path class="st0" d="M176.6,46.2l0-15.9l-7.9,13.1h-2l-7.9-12.9v15.7h-4.3v-24h3.7l9.6,15.9l9.4-15.9h3.7l0,24H176.6z"/>
<g>
	<path class="st0" d="M20.3,74.2H9l-2.4,5.4H4.3l9.3-20.2h2.1L25,79.6h-2.3L20.3,74.2z M19.5,72.5l-4.9-10.9L9.8,72.5H19.5z"/>
	<path class="st0" d="M28.4,59.4h8.3c2.1,0,4,0.4,5.7,1.3c1.6,0.9,2.9,2,3.8,3.6c0.9,1.5,1.4,3.3,1.4,5.2c0,2-0.5,3.7-1.4,5.2
		c-0.9,1.5-2.2,2.7-3.8,3.6c-1.6,0.9-3.5,1.3-5.7,1.3h-8.3V59.4z M36.5,77.8c1.8,0,3.3-0.4,4.7-1.1c1.3-0.7,2.4-1.7,3.1-2.9
		c0.7-1.2,1.1-2.7,1.1-4.3c0-1.6-0.4-3-1.1-4.3c-0.7-1.2-1.8-2.2-3.1-2.9c-1.3-0.7-2.9-1.1-4.7-1.1h-6v16.5H36.5z"/>
	<path class="st0" d="M68.6,59.4l-9,20.2h-2.1l-9-20.2h2.3L58.6,77l7.8-17.5H68.6z"/>
	<path class="st0" d="M74.8,78.5c-1.6-0.9-2.9-2.1-3.8-3.7c-0.9-1.6-1.4-3.3-1.4-5.3c0-1.9,0.5-3.7,1.4-5.3c0.9-1.6,2.2-2.8,3.8-3.7
		c1.6-0.9,3.5-1.3,5.5-1.3c2,0,3.8,0.4,5.4,1.3c1.6,0.9,2.9,2.1,3.8,3.7c0.9,1.6,1.4,3.3,1.4,5.3c0,1.9-0.5,3.7-1.4,5.3
		c-0.9,1.6-2.2,2.8-3.8,3.7c-1.6,0.9-3.4,1.3-5.4,1.3C78.2,79.8,76.4,79.3,74.8,78.5z M84.6,76.8c1.3-0.7,2.3-1.7,3-3
		c0.7-1.3,1.1-2.7,1.1-4.3c0-1.6-0.4-3-1.1-4.3c-0.7-1.3-1.8-2.3-3-3c-1.3-0.7-2.7-1.1-4.4-1.1c-1.6,0-3.1,0.4-4.4,1.1
		c-1.3,0.7-2.3,1.7-3.1,3c-0.7,1.3-1.1,2.7-1.1,4.3c0,1.6,0.4,3,1.1,4.3c0.7,1.3,1.8,2.3,3.1,3c1.3,0.7,2.8,1.1,4.4,1.1
		C81.8,77.9,83.3,77.5,84.6,76.8z"/>
	<path class="st0" d="M99.1,78.5c-1.6-0.9-2.9-2.1-3.8-3.7c-0.9-1.6-1.4-3.3-1.4-5.3c0-1.9,0.5-3.7,1.4-5.3c0.9-1.6,2.2-2.8,3.8-3.7
		c1.6-0.9,3.4-1.3,5.5-1.3c1.5,0,2.9,0.3,4.2,0.8c1.3,0.5,2.4,1.2,3.2,2.2l-1.4,1.4c-1.6-1.6-3.6-2.4-6-2.4c-1.6,0-3.1,0.4-4.4,1.1
		c-1.3,0.7-2.3,1.7-3.1,3c-0.7,1.3-1.1,2.7-1.1,4.3c0,1.6,0.4,3,1.1,4.3c0.7,1.3,1.8,2.3,3.1,3c1.3,0.7,2.8,1.1,4.4,1.1
		c2.4,0,4.4-0.8,6-2.4l1.4,1.4c-0.9,1-2,1.7-3.3,2.2c-1.3,0.5-2.7,0.8-4.2,0.8C102.5,79.8,100.7,79.4,99.1,78.5z"/>
	<path class="st0" d="M128.7,74.2h-11.3l-2.4,5.4h-2.2l9.3-20.2h2.1l9.3,20.2h-2.3L128.7,74.2z M128,72.5l-4.9-10.9l-4.9,10.9H128z"
		/>
	<path class="st0" d="M139.9,78.5c-1.6-0.9-2.9-2.1-3.8-3.7c-0.9-1.6-1.4-3.3-1.4-5.3c0-1.9,0.5-3.7,1.4-5.3
		c0.9-1.6,2.2-2.8,3.8-3.7c1.6-0.9,3.4-1.3,5.5-1.3c1.5,0,2.9,0.3,4.2,0.8c1.3,0.5,2.4,1.2,3.2,2.2l-1.4,1.4c-1.6-1.6-3.6-2.4-6-2.4
		c-1.6,0-3.1,0.4-4.4,1.1c-1.3,0.7-2.3,1.7-3.1,3c-0.7,1.3-1.1,2.7-1.1,4.3c0,1.6,0.4,3,1.1,4.3c0.7,1.3,1.8,2.3,3.1,3
		c1.3,0.7,2.8,1.1,4.4,1.1c2.4,0,4.4-0.8,6-2.4l1.4,1.4c-0.9,1-2,1.7-3.3,2.2c-1.3,0.5-2.7,0.8-4.2,0.8
		C143.3,79.8,141.5,79.4,139.9,78.5z"/>
	<path class="st0" d="M157.4,59.4h2.1v20.2h-2.1V59.4z"/>
	<path class="st0" d="M178.9,74.2h-11.3l-2.4,5.4h-2.2l9.3-20.2h2.1l9.3,20.2h-2.3L178.9,74.2z M178.1,72.5l-4.9-10.9l-4.9,10.9
		H178.1z"/>
</g>
<path class="st1" d="M21.9,12.6h7.2c0.5,0,1,0,1.3-0.1c0.3,0,0.6-0.1,1.1-0.3v7.3c-0.5-0.5-1-0.9-1.5-1.2c-0.5-0.3-1-0.6-1.5-0.7
	c-0.6-0.2-1.2-0.3-1.9-0.4c-0.7-0.1-1.6-0.1-2.5-0.1c-0.8,0-1.5,0-2.1,0V12.6z M17.6,46.1c0,1.4,0,2.5,0.1,3.3
	c0.1,0.9,0.2,1.6,0.4,2.2c0.2,0.6,0.5,1.1,0.8,1.5c0.3,0.4,0.8,0.7,1.4,1H8.6c0.6-0.3,1-0.7,1.4-1c0.3-0.4,0.6-0.9,0.8-1.5
	c0.2-0.6,0.3-1.3,0.4-2.2c0.1-0.9,0.1-2,0.1-3.3v-9.9l4.8-4.9l2-2h7.7c0.5,0,0.8,0,1.1-0.1c0.3,0,0.6-0.2,1-0.4v6.7
	c-0.5-0.7-1-1.1-1.7-1.4c-0.7-0.2-1.7-0.4-3.1-0.4h-5.5V46.1z"/>
<path class="st2" d="M13.8,18.9h1.4v12l-1.4,1.4V18.9z M8.5,15.6H7.9v-2.2h0.7v0.4h11.7v-0.4H21v2.2h-0.7v-0.4H8.5V15.6z M18.9,12.4
	v0.7H10v-0.7v-0.7h8.9V12.4z M12.7,19.3v1.9v1.4v10.9l-1.4,1.4V22.6h-1.1c-0.7,0-1.3-0.3-1.7-0.7c-0.4-0.5-0.7-1.1-0.7-1.8v-1.6
	c0-0.7,0.3-1.3,0.7-1.8l0,0c0.4-0.5,1.1-0.7,1.7-0.7h8.5c0.7,0,1.3,0.3,1.7,0.7c0.4,0.5,0.7,1.1,0.7,1.8V20c0,0.7-0.3,1.3-0.7,1.8
	l0,0c-0.4,0.5-1.1,0.7-1.7,0.7h-1.1v5.9l-1.4,1.4v-7.3v-1.4v-1.9h-0.4v-0.7H18v0.7h-0.4v1.9h1.1c0.3,0,0.6-0.1,0.8-0.3l0,0
	c0.2-0.2,0.3-0.5,0.3-0.8v-1.6c0-0.3-0.1-0.6-0.3-0.8c-0.2-0.2-0.5-0.3-0.8-0.3h-8.5c-0.3,0-0.6,0.1-0.8,0.3l0,0
	c-0.2,0.2-0.3,0.5-0.3,0.8V20c0,0.3,0.1,0.6,0.3,0.8c0.2,0.2,0.5,0.3,0.8,0.3h1.1v-1.9H11v-0.7h2.2v0.7H12.7z"/>
</svg>
